<svg width="16" height="10" viewBox="0 0 16 10" fill="none" xmlns="http://www.w3.org/2000/svg">
<path d="M0.5 8.12336C0.5 7.99515 0.550223 7.88089 0.65067 7.78056L7.65681 0.782426C7.75725 0.682094 7.87165 0.631928 8 0.631928C8.12835 0.631928 8.24275 0.682094 8.34319 0.782426L15.3493 7.78056C15.4498 7.88089 15.5 7.99515 15.5 8.12336C15.5 8.25156 15.4498 8.36582 15.3493 8.46616L14.596 9.21864C14.4955 9.31897 14.3811 9.36914 14.2528 9.36914C14.1244 9.36914 14.01 9.31897 13.9096 9.21864L8 3.3158L2.0904 9.21864C1.98996 9.31897 1.87556 9.36914 1.74721 9.36914C1.61886 9.36914 1.50447 9.31897 1.40402 9.21864L0.65067 8.46616C0.550223 8.36582 0.5 8.25156 0.5 8.12336Z" fill="white"/>
</svg>
