<svg width="7" height="11" viewBox="0 0 7 11" fill="none" xmlns="http://www.w3.org/2000/svg">
<path d="M6.13907 5.80947C6.26265 5.67939 6.32444 5.5233 6.32444 5.34118C6.32444 5.15907 6.2594 5.00297 6.12932 4.87289L2.41224 1.15582C2.28867 1.02573 2.13582 0.960694 1.95371 0.960694C1.77159 0.960694 1.6155 1.02573 1.48542 1.15582L0.870781 1.78021C0.7407 1.91029 0.675659 2.06476 0.675659 2.24362C0.675659 2.42248 0.7407 2.57695 0.870781 2.70704L3.50493 5.34118L0.870781 7.97533C0.7407 8.10541 0.675659 8.26151 0.675659 8.44362C0.675659 8.62574 0.7407 8.77858 0.870781 8.90216L1.49517 9.52655C1.61875 9.65013 1.77159 9.71191 1.95371 9.71191C2.13582 9.71191 2.28867 9.65013 2.41224 9.52655L6.13907 5.80947Z" fill="#CCCCCC"/>
</svg>
