<svg width="28" height="26" viewBox="0 0 28 26" fill="none" xmlns="http://www.w3.org/2000/svg">
<path fill-rule="evenodd" clip-rule="evenodd" d="M27.584 22.7922C26.989 24.2192 25.54 25.2082 24.035 25.1962C23.0331 25.2037 22.068 24.8189 21.346 24.1242C20.7235 23.524 20.3054 22.7431 20.151 21.8922C16.336 21.8922 12.52 21.8902 8.70504 21.8932C8.47604 23.2002 7.58304 24.3552 6.39804 24.8712C5.91123 25.0858 5.38505 25.1967 4.85304 25.1967C4.32102 25.1967 3.79484 25.0858 3.30804 24.8712C1.94004 24.2792 0.970039 22.8282 0.941039 21.2942C0.902387 20.2906 1.23209 19.3076 1.86804 18.5302C2.43965 17.8303 3.23683 17.3509 4.12304 17.1742C4.97115 17.0086 5.85037 17.1366 6.61604 17.5372C7.39004 17.9446 8.00954 18.5939 8.38004 19.3862C8.86304 19.0062 9.44004 18.7252 10.058 18.7272H18.209C18.62 18.7312 19.042 18.6952 19.44 18.8252C19.824 18.9272 20.158 19.1522 20.477 19.3862C20.648 19.0132 20.892 18.6842 21.146 18.3682C21.181 17.8352 21.101 17.2992 21.034 16.7712C20.844 15.4672 20.55 14.1832 20.234 12.9062C19.6675 10.6765 19.0346 8.46416 18.336 6.27221C17.94 5.08421 17.546 3.89521 17.144 2.70921C16.78 2.67721 16.416 2.64121 16.051 2.60921C15.9191 2.76959 15.7538 2.89922 15.5665 2.98904C15.3793 3.07886 15.1747 3.1267 14.967 3.12921C13.745 3.13121 12.524 3.13421 11.303 3.12821C10.577 3.13221 9.92604 2.47021 9.92304 1.71921C9.87904 0.958213 10.506 0.241213 11.245 0.220213C12.486 0.214213 13.726 0.220213 14.966 0.217213C15.459 0.204213 15.923 0.497212 16.182 0.921212C16.732 0.975212 17.282 1.02221 17.832 1.07521C17.9868 1.09244 18.1334 1.15343 18.2547 1.25102C18.3761 1.34861 18.467 1.47876 18.517 1.62621C20.245 6.78821 21.963 11.9542 23.695 17.1172C24.5355 17.0491 25.3748 17.2612 26.082 17.7202C26.7983 18.1868 27.3472 18.8695 27.649 19.6692C28.0302 20.6798 28.0069 21.7984 27.584 22.7922ZM6.59104 19.6932C6.2855 19.2935 5.85124 19.0117 5.36176 18.8954C4.87229 18.7792 4.35767 18.8356 3.90504 19.0552C3.62163 19.1947 3.36992 19.3909 3.16555 19.6318C2.96118 19.8726 2.80851 20.1529 2.71704 20.4552C2.62301 20.7626 2.59234 21.0858 2.62689 21.4053C2.66144 21.7249 2.76049 22.0341 2.91804 22.3142C3.23004 22.8742 3.78004 23.2872 4.39404 23.4162C4.99404 23.5502 5.64404 23.4102 6.14304 23.0412C6.66104 22.6672 7.01304 22.0562 7.07904 21.4072C7.14598 20.7941 6.97088 20.1791 6.59104 19.6932ZM25.833 19.8172C25.5063 19.3346 25.0046 18.9982 24.434 18.8792C23.8725 18.7668 23.2892 18.8796 22.81 19.1932C22.5229 19.3835 22.2814 19.6349 22.103 19.9295C21.9246 20.2241 21.8136 20.5546 21.778 20.8972C21.715 21.4672 21.868 22.0572 22.198 22.5192C22.55 23.0202 23.105 23.3622 23.699 23.4442C23.9856 23.4846 24.2774 23.4675 24.5572 23.3939C24.8371 23.3202 25.0995 23.1915 25.329 23.0152C25.813 22.6502 26.144 22.0792 26.223 21.4662C26.3009 20.8873 26.162 20.3 25.833 19.8172ZM23.298 22.1112C22.909 21.8152 22.741 21.2552 22.894 20.7822C23.067 20.1772 23.745 19.8032 24.329 19.9932C24.75 20.1152 25.086 20.5012 25.153 20.9492C25.231 21.3962 25.039 21.8772 24.678 22.1342C24.4766 22.2805 24.2331 22.3574 23.9842 22.3533C23.7353 22.3491 23.4945 22.2642 23.298 22.1112ZM5.39904 22.2152C4.97404 22.4542 4.40904 22.3792 4.05904 22.0332C3.62704 21.6352 3.56404 20.8962 3.92204 20.4252C4.06127 20.2319 4.25708 20.0867 4.48242 20.0094C4.70777 19.9322 4.95153 19.9269 5.18004 19.9942C5.62104 20.1222 5.96604 20.5412 6.01004 21.0132C6.07104 21.4932 5.81704 21.9952 5.39904 22.2152Z" fill="white"/>
</svg>
