<svg width="100" height="50" viewBox="0 0 100 50" fill="none" xmlns="http://www.w3.org/2000/svg">
<g clip-path="url(#clip0_1_722)">
<g clip-path="url(#clip1_1_722)">
<path fill-rule="evenodd" clip-rule="evenodd" d="M50 0.188965C63.531 0.188965 74.5 11.159 74.5 24.689C74.5 38.221 63.531 49.19 50 49.19C36.469 49.19 25.5 38.221 25.5 24.689C25.5 11.159 36.469 0.188965 50 0.188965Z" fill="#6AC680"/>
<path fill-rule="evenodd" clip-rule="evenodd" d="M84.5 22.1899H99.5V23.1899H84.5V22.1899ZM84.5 26.1899H99.5V27.1899H84.5V26.1899ZM0.5 22.1899H15.5V23.1899H0.5V22.1899ZM0.5 26.1899H15.5V27.1899H0.5V26.1899Z" fill="#DDDDDD"/>
<path fill-rule="evenodd" clip-rule="evenodd" d="M63.084 33.9819C62.489 35.4089 61.04 36.3979 59.535 36.3859C58.5331 36.3934 57.568 36.0086 56.846 35.3139C56.2235 34.7136 55.8054 33.9328 55.651 33.0819C51.836 33.0819 48.02 33.0799 44.205 33.0829C43.976 34.3899 43.083 35.5449 41.898 36.0609C41.4112 36.2755 40.8851 36.3864 40.353 36.3864C39.821 36.3864 39.2948 36.2755 38.808 36.0609C37.44 35.4689 36.47 34.0179 36.441 32.4839C36.4024 31.4803 36.7321 30.4972 37.368 29.7199C37.9396 29.02 38.7368 28.5406 39.623 28.3639C40.4711 28.1983 41.3504 28.3263 42.116 28.7269C42.89 29.1343 43.5095 29.7836 43.88 30.5759C44.363 30.1959 44.94 29.9149 45.558 29.9169H53.709C54.12 29.9209 54.542 29.8849 54.94 30.0149C55.324 30.1169 55.658 30.3419 55.977 30.5759C56.148 30.2029 56.392 29.8739 56.646 29.5579C56.681 29.0249 56.601 28.4889 56.534 27.9609C56.344 26.6569 56.05 25.3729 55.734 24.0959C55.1675 21.8662 54.5346 19.6539 53.836 17.4619C53.44 16.2739 53.046 15.0849 52.644 13.8989C52.28 13.8669 51.916 13.8309 51.551 13.7989C51.4191 13.9593 51.2538 14.0889 51.0665 14.1787C50.8793 14.2686 50.6747 14.3164 50.467 14.3189C49.245 14.3209 48.024 14.3239 46.803 14.3179C46.077 14.3219 45.426 13.6599 45.423 12.9089C45.379 12.1479 46.006 11.4309 46.745 11.4099C47.986 11.4039 49.226 11.4099 50.466 11.4069C50.959 11.3939 51.423 11.6869 51.682 12.1109C52.232 12.1649 52.782 12.2119 53.332 12.2649C53.4868 12.2821 53.6334 12.3431 53.7547 12.4407C53.8761 12.5383 53.967 12.6685 54.017 12.8159C55.745 17.9779 57.463 23.1439 59.195 28.3069C60.0355 28.2388 60.8748 28.4508 61.582 28.9099C62.2983 29.3765 62.8472 30.0592 63.149 30.8589C63.5302 31.8695 63.5069 32.9881 63.084 33.9819ZM42.091 30.8829C41.7855 30.4832 41.3512 30.2014 40.8618 30.0851C40.3723 29.9689 39.8577 30.0253 39.405 30.2449C39.1216 30.3844 38.8699 30.5806 38.6655 30.8215C38.4612 31.0623 38.3085 31.3426 38.217 31.6449C38.123 31.9523 38.0923 32.2755 38.1269 32.595C38.1614 32.9146 38.2605 33.2238 38.418 33.5039C38.73 34.0639 39.28 34.4769 39.894 34.6059C40.494 34.7399 41.144 34.5999 41.643 34.2309C42.161 33.8569 42.513 33.2459 42.579 32.5969C42.646 31.9838 42.4709 31.3688 42.091 30.8829ZM61.333 31.0069C61.0063 30.5243 60.5046 30.1879 59.934 30.0689C59.3725 29.9565 58.7892 30.0693 58.31 30.3829C58.0229 30.5731 57.7814 30.8246 57.603 31.1192C57.4246 31.4138 57.3136 31.7443 57.278 32.0869C57.215 32.6569 57.368 33.2469 57.698 33.7089C58.05 34.2099 58.605 34.5519 59.199 34.6339C59.4856 34.6743 59.7774 34.6572 60.0572 34.5836C60.3371 34.5099 60.5995 34.3812 60.829 34.2049C61.313 33.8399 61.644 33.2689 61.723 32.6559C61.8009 32.077 61.662 31.4897 61.333 31.0069ZM58.798 33.3009C58.409 33.0049 58.241 32.4449 58.394 31.9719C58.567 31.3669 59.245 30.9929 59.829 31.1829C60.25 31.3049 60.586 31.6909 60.653 32.1389C60.731 32.5859 60.539 33.0669 60.178 33.3239C59.9766 33.4702 59.7331 33.5471 59.4842 33.543C59.2353 33.5388 58.9945 33.4539 58.798 33.3009ZM40.899 33.4049C40.474 33.6439 39.909 33.5689 39.559 33.2229C39.127 32.8249 39.064 32.0859 39.422 31.6149C39.5613 31.4216 39.7571 31.2764 39.9824 31.1991C40.2078 31.1219 40.4515 31.1166 40.68 31.1839C41.121 31.3119 41.466 31.7309 41.51 32.2029C41.571 32.6829 41.317 33.1849 40.899 33.4049Z" fill="white"/>
</g>
</g>
<defs>
<clipPath id="clip0_1_722">
<rect width="99" height="49" fill="white" transform="translate(0.5 0.189941)"/>
</clipPath>
<clipPath id="clip1_1_722">
<rect width="99" height="49" fill="white" transform="translate(0.5 0.189941)"/>
</clipPath>
</defs>
</svg>
